<svg width="168" height="160" viewBox="0 0 168 160" fill="none" xmlns="http://www.w3.org/2000/svg">
<g filter="url(#filter0_dd_1417_152919)">
<path d="M143.976 60.7276C143.976 60.8669 143.976 61.0062 143.976 61.1456C143.976 61.2559 143.965 61.3604 143.953 61.4649C143.941 61.5869 143.936 61.7088 143.924 61.8249C143.895 62.0339 143.86 62.2371 143.814 62.4287C143.796 62.5042 143.773 62.5739 143.75 62.6436C143.709 62.7829 143.669 62.9223 143.622 63.05C143.593 63.1255 143.558 63.2009 143.523 63.2764C143.471 63.3925 143.419 63.5087 143.355 63.619C143.314 63.6887 143.274 63.7583 143.227 63.828C143.158 63.9325 143.082 64.037 143.007 64.1299C142.96 64.188 142.908 64.2518 142.856 64.3099C142.763 64.4086 142.664 64.5015 142.56 64.5944C142.507 64.6408 142.461 64.6873 142.409 64.7279C142.246 64.8557 142.072 64.9718 141.875 65.0763V65.0879L58.1451 109.458L35.9252 113.313L31.3268 114.109L23.9995 115.386L32.488 106.735L48.2747 90.6521L121.681 51.7514C121.431 51.821 121.182 51.9139 120.938 52.0417C122.372 51.2927 123.092 50.9211 124.526 50.1721C124.723 50.0676 124.932 49.9863 125.136 49.9224L128.747 48.0064C128.642 48.0471 128.532 48.0819 128.433 48.1342C129.868 47.3852 130.587 47.0136 132.022 46.2646C135.598 44.4009 140.887 50.4102 143.03 56.222C143.39 57.2033 143.663 58.1729 143.82 59.1019C143.82 59.1309 143.831 59.1657 143.837 59.1948C143.866 59.3747 143.889 59.5547 143.907 59.7347C143.918 59.816 143.924 59.8915 143.93 59.9728C143.947 60.1295 143.953 60.2863 143.965 60.4431C143.965 60.5418 143.97 60.6347 143.97 60.7276H143.976Z" fill="#611F69"/>
<path d="M132.039 44.958C130.605 45.707 129.885 46.0786 128.451 46.8276C128.555 46.7753 128.66 46.7405 128.764 46.6998L125.153 48.6158C124.944 48.6797 124.741 48.761 124.543 48.8655C123.109 49.6145 122.389 49.9861 120.955 50.7409C121.199 50.6131 121.449 50.526 121.698 50.4505L48.2922 89.3571L50.3708 90.1235C57.1871 92.6317 60.7985 100.087 58.54 106.996L58.1568 108.163L141.886 63.7871V63.7755C148.523 60.2454 137.944 41.8924 132.039 44.958Z" fill="#C474D3"/>
<path d="M50.3706 90.117L48.2921 89.3506L24.0168 114.084L58.1624 108.156L58.5456 106.989C60.8042 100.086 57.1928 92.631 50.3764 90.117H50.3706Z" fill="#F9EDFF"/>
<path d="M58.8243 99.6044C43.6646 108.668 24.0227 114.085 24.0168 114.085L58.1624 108.157L58.5456 106.99C59.3526 104.511 59.4049 101.968 58.8301 99.5986L58.8243 99.6044Z" fill="#A350AF"/>
<path d="M37.7598 106.892C36.047 103.286 32.5053 105.44 32.5053 105.44L24.0168 114.085L35.9367 112.018C35.9367 112.018 39.5423 110.654 37.7598 106.892Z" fill="#611F69"/>
<path d="M141.886 63.775C144.673 62.2887 144.417 58.1896 142.751 54.1602L58.8243 99.6043C58.9695 100.191 59.074 100.789 59.1378 101.393C59.1378 101.404 59.1378 101.416 59.1378 101.427C59.2017 102.02 59.2191 102.623 59.2017 103.227C59.2017 103.256 59.2017 103.28 59.2017 103.309C59.1901 103.57 59.1727 103.837 59.1494 104.098C59.1494 104.145 59.1436 104.191 59.1378 104.238C59.1088 104.522 59.0682 104.812 59.0159 105.097C59.0101 105.132 59.0043 105.167 58.9985 105.201C58.952 105.451 58.8998 105.695 58.8417 105.939C58.8243 106.008 58.8069 106.084 58.7895 106.154C58.7198 106.432 58.6385 106.711 58.5514 106.99L58.1682 108.157L141.886 63.7866V63.775Z" fill="#83388A"/>
</g>
<defs>
<filter id="filter0_dd_1417_152919" x="-0.000488281" y="32.6143" width="168.001" height="118.772" filterUnits="userSpaceOnUse" color-interpolation-filters="sRGB">
<feFlood flood-opacity="0" result="BackgroundImageFix"/>
<feColorMatrix in="SourceAlpha" type="matrix" values="0 0 0 0 0 0 0 0 0 0 0 0 0 0 0 0 0 0 127 0" result="hardAlpha"/>
<feOffset dy="12"/>
<feGaussianBlur stdDeviation="12"/>
<feComposite in2="hardAlpha" operator="out"/>
<feColorMatrix type="matrix" values="0 0 0 0 0.635294 0 0 0 0 0.313726 0 0 0 0 0.686275 0 0 0 0.2 0"/>
<feBlend mode="normal" in2="BackgroundImageFix" result="effect1_dropShadow_1417_152919"/>
<feColorMatrix in="SourceAlpha" type="matrix" values="0 0 0 0 0 0 0 0 0 0 0 0 0 0 0 0 0 0 127 0" result="hardAlpha"/>
<feOffset dy="2"/>
<feGaussianBlur stdDeviation="2"/>
<feComposite in2="hardAlpha" operator="out"/>
<feColorMatrix type="matrix" values="0 0 0 0 0.635294 0 0 0 0 0.313726 0 0 0 0 0.686275 0 0 0 0.25 0"/>
<feBlend mode="normal" in2="effect1_dropShadow_1417_152919" result="effect2_dropShadow_1417_152919"/>
<feBlend mode="normal" in="SourceGraphic" in2="effect2_dropShadow_1417_152919" result="shape"/>
</filter>
</defs>
</svg>
