<svg width="168" height="162" viewBox="0 0 168 162" fill="none" xmlns="http://www.w3.org/2000/svg">
<g filter="url(#filter0_dd_1417_152917)">
<path d="M84 125.071C117.137 125.071 144 109.748 144 90.8465C144 71.945 117.137 56.6223 84 56.6223C50.8629 56.6223 24 71.945 24 90.8465C24 109.748 50.8629 125.071 84 125.071Z" fill="#611F69"/>
<path d="M144 89.1477C144 108.049 117.137 123.372 84 123.372C50.863 123.372 24 108.049 24 89.1477V69.1477H144V89.1477Z" fill="#A350AF"/>
<path d="M104.629 121.294C127.601 116.498 144 103.916 144 89.1477V69.1477H104.629V121.294Z" fill="#83388A"/>
<path d="M84 103.378C117.137 103.378 144 88.055 144 69.1534C144 50.2519 117.137 34.9292 84 34.9292C50.8629 34.9292 24 50.2519 24 69.1534C24 88.055 50.8629 103.378 84 103.378Z" fill="#F9EDFF"/>
<path d="M114.481 51.4353L113.87 51.0786L117.732 48.8362L118.343 49.193L118.955 49.5497L115.093 51.7921L114.481 51.4353ZM97.2899 42.0129L95.6195 41.7524L94.2208 44.8215L95.8913 45.082L97.2899 42.0129ZM73.5017 44.8215L72.0634 41.7581L70.393 42.0186L71.8256 45.0877L73.496 44.8272L73.5017 44.8215ZM53.9207 51.0786L50.0362 48.8362L48.8188 49.5441L52.7033 51.7864L53.9207 51.0786ZM39.6342 62.1828L34.3397 61.3617L33.8981 62.33L39.1925 63.1511L39.6342 62.1828ZM36.7407 75.971L37.1937 76.9393L42.4824 76.1182L42.0294 75.15L36.7407 75.971ZM49.034 88.757L50.2627 89.4648L54.1246 87.2224L52.8958 86.5146L49.034 88.757ZM70.6988 96.2881L72.3692 96.5486L73.7678 93.4852L72.0974 93.2247L70.6988 96.2881ZM94.4926 93.4852L95.9309 96.5486L97.5957 96.2881L96.1631 93.2247L94.4926 93.4852ZM114.074 87.2224L117.964 89.4648L119.181 88.757L115.291 86.5146L114.074 87.2224ZM128.253 75.1556L128.032 75.6426L127.811 76.1239L133.105 76.945L133.326 76.4637L133.553 75.9767L128.258 75.1556H128.253ZM133.468 62.3357L133.015 61.3674L127.726 62.1885L128.179 63.1567L133.468 62.3357ZM117.817 74.4025C117.952 74.1024 117.794 73.7966 117.443 73.5928C117.267 73.4908 117.046 73.4172 116.792 73.3776L86.8482 68.7343C86.8482 68.7343 86.8369 68.7117 86.8312 68.6947L97.3182 62.6018C97.8788 62.2734 97.8788 61.7468 97.3126 61.4184C96.7463 61.0899 95.8346 61.0899 95.2741 61.4184L84.7871 67.5112C83.7961 67.3527 82.692 67.4942 81.9105 67.9472C80.7667 68.6097 80.7667 69.6913 81.9219 70.3595C83.0713 71.022 84.94 71.022 86.0838 70.3595C86.0951 70.3595 86.1008 70.3481 86.1121 70.3425L116.05 74.9857C116.82 75.1047 117.607 74.8442 117.811 74.3968L117.817 74.4025Z" fill="#611F69"/>
</g>
<defs>
<filter id="filter0_dd_1417_152917" x="0" y="22.9292" width="168" height="138.142" filterUnits="userSpaceOnUse" color-interpolation-filters="sRGB">
<feFlood flood-opacity="0" result="BackgroundImageFix"/>
<feColorMatrix in="SourceAlpha" type="matrix" values="0 0 0 0 0 0 0 0 0 0 0 0 0 0 0 0 0 0 127 0" result="hardAlpha"/>
<feOffset dy="12"/>
<feGaussianBlur stdDeviation="12"/>
<feComposite in2="hardAlpha" operator="out"/>
<feColorMatrix type="matrix" values="0 0 0 0 0.635294 0 0 0 0 0.313726 0 0 0 0 0.686275 0 0 0 0.2 0"/>
<feBlend mode="normal" in2="BackgroundImageFix" result="effect1_dropShadow_1417_152917"/>
<feColorMatrix in="SourceAlpha" type="matrix" values="0 0 0 0 0 0 0 0 0 0 0 0 0 0 0 0 0 0 127 0" result="hardAlpha"/>
<feOffset dy="2"/>
<feGaussianBlur stdDeviation="2"/>
<feComposite in2="hardAlpha" operator="out"/>
<feColorMatrix type="matrix" values="0 0 0 0 0.635294 0 0 0 0 0.313726 0 0 0 0 0.686275 0 0 0 0.25 0"/>
<feBlend mode="normal" in2="effect1_dropShadow_1417_152917" result="effect2_dropShadow_1417_152917"/>
<feBlend mode="normal" in="SourceGraphic" in2="effect2_dropShadow_1417_152917" result="shape"/>
</filter>
</defs>
</svg>
